<?xml version="1.0" standalone="no"?>
<!DOCTYPE svg PUBLIC "-//W3C//DTD SVG 20010904//EN"
 "http://www.w3.org/TR/2001/REC-SVG-20010904/DTD/svg10.dtd">
<svg version="1.0" xmlns="http://www.w3.org/2000/svg"
 width="1920pt" height="212pt" viewBox="0 0 1920 212"
 preserveAspectRatio="xMidYMid meet">

    <g transform="translate(0,215) scale(0.1,-0.1)"
    fill="#d4d4d8" stroke='#22d3ee' stroke-width='32'>
    <path d="M0 1060 l0 -1060 9600 0 9600 0 0 1060 0 1060 -2077 0 c-1783 0
    -2094 -3 -2193 -15 -160 -21 -237 -36 -362 -70 -32 -8 -82 -21 -110 -29 -74
    -20 -146 -44 -193 -65 -22 -10 -92 -40 -155 -66 -63 -25 -140 -59 -170 -75
    -30 -16 -102 -51 -160 -79 -58 -28 -112 -55 -120 -60 -25 -16 -391 -191 -443
    -212 -26 -10 -71 -31 -100 -45 -28 -15 -124 -51 -212 -81 -88 -29 -169 -57
    -180 -62 -53 -23 -292 -73 -436 -91 -222 -28 -550 -31 -2844 -27 -2136 3
    -2371 5 -2480 20 -270 37 -385 63 -595 135 -219 75 -261 90 -274 101 -6 4 -47
    23 -91 41 -76 30 -433 201 -465 221 -8 5 -62 32 -120 60 -58 27 -127 62 -155
    76 -66 35 -74 39 -115 56 -19 8 -61 27 -93 41 -32 14 -62 26 -67 26 -5 0 -34
    11 -63 25 -120 54 -329 110 -542 145 -38 6 -94 16 -124 21 -32 5 -911 9 -2158
    9 l-2103 0 0 -1060z"/>

    </g>
</svg>
